<?xml version="1.0" encoding="utf-8"?>
<!-- Generator: Adobe Illustrator 17.0.0, SVG Export Plug-In . SVG Version: 6.00 Build 0)  -->
<!DOCTYPE svg PUBLIC "-//W3C//DTD SVG 1.0//EN" "http://www.w3.org/TR/2001/REC-SVG-20010904/DTD/svg10.dtd">
<svg version="1.0" id="Layer_1" xmlns="http://www.w3.org/2000/svg" xmlns:xlink="http://www.w3.org/1999/xlink" x="0px" y="0px"
	 width="841.89px" height="595.44px" viewBox="0 0 841.89 595.44" enable-background="new 0 0 841.89 595.44" xml:space="preserve">
<rect display="none" fill="#3EDD9C" width="841.89" height="595.44"/>
<defs>
	<filter id="Adobe_OpacityMaskFilter" filterUnits="userSpaceOnUse" x="311.177" y="227.308" width="248.744" height="67.498">
		
			<feColorMatrix  type="matrix" values="-1 0 0 0 1  0 -1 0 0 1  0 0 -1 0 1  0 0 0 1 0" color-interpolation-filters="sRGB" result="source"/>
		<feFlood  style="flood-color:white;flood-opacity:1" result="back"/>
		<feBlend  in="source" in2="back" mode="normal"/>
	</filter>
</defs>
<mask maskUnits="userSpaceOnUse" x="311.177" y="227.308" width="248.744" height="67.498" id="SVGID_1_">
	<g filter="url(#Adobe_OpacityMaskFilter)">
		<path fill="#FFFFFF" d="M416.671,270.645c0,7.509-6.087,13.597-13.597,13.597l0,0c-7.509,0-13.597-6.087-13.597-13.597v-18.258
			c0-7.509,6.087-13.597,13.597-13.597l0,0c7.509,0,13.597,6.087,13.597,13.597V270.645z"/>
	</g>
</mask>
<g mask="url(#SVGID_1_)">
	<path fill="#FFFFFF" d="M336.35,294.806c-10.163,0-18.46-1.863-25.173-8.763l10.442-10.442c3.45,3.449,9.51,4.662,14.824,4.662
		c6.433,0,9.51-2.144,9.51-5.967c0-1.584-0.373-2.889-1.305-3.915c-0.839-0.839-2.238-1.492-4.382-1.772l-8.018-1.118
		c-5.873-0.839-10.348-2.797-13.332-5.873c-3.077-3.17-4.568-7.646-4.568-13.333c0-12.12,9.137-20.977,24.24-20.977
		c9.509,0,16.688,2.238,22.375,7.924l-10.256,10.255c-4.195-4.195-9.696-3.915-12.586-3.915c-5.687,0-8.018,3.263-8.018,6.153
		c0,0.839,0.28,2.052,1.305,3.077c0.839,0.839,2.238,1.678,4.568,1.958l8.018,1.118c5.967,0.839,10.256,2.704,13.053,5.501
		c3.543,3.449,4.941,8.392,4.941,14.544C361.988,287.442,350.334,294.806,336.35,294.806z"/>
	<path fill="#FFFFFF" d="M421.377,287.348c-4.848,4.848-10.442,7.458-18.553,7.458s-13.705-2.61-18.553-7.458
		c-6.993-6.991-6.713-16.314-6.713-26.29c0-9.976-0.28-19.299,6.713-26.291c4.848-4.848,10.442-7.458,18.553-7.458
		s13.705,2.61,18.553,7.458c6.993,6.992,6.713,16.315,6.713,26.291C428.089,271.034,428.369,280.357,421.377,287.348z
		 M409.35,244.742c-1.212-1.585-3.543-2.89-6.526-2.89s-5.314,1.305-6.526,2.89c-1.492,1.958-2.424,4.196-2.424,16.316
		s0.932,14.264,2.424,16.222c1.212,1.586,3.543,2.983,6.526,2.983s5.314-1.398,6.526-2.983c1.492-1.958,2.424-4.102,2.424-16.222
		S410.842,246.7,409.35,244.742z"/>
	<path fill="#FFFFFF" d="M470.324,294.806c-13.798,0-25.079-9.322-25.079-23.867v-43.072h16.316v42.7
		c0,6.153,3.357,9.695,8.763,9.695c5.407,0,8.95-3.542,8.95-9.695v-42.7h16.314v43.072
		C495.589,285.485,484.123,294.806,470.324,294.806z"/>
	<path fill="#FFFFFF" d="M543.605,242.412v51.836h-16.314v-51.836h-16.316v-14.544h48.946v14.544H543.605z"/>
</g>
<circle fill="#FFFFFF" cx="410.067" cy="261.057" r="2.914"/>
</svg>
